<svg xmlns="http://www.w3.org/2000/svg" width="25.427" height="21.814" viewBox="0 0 25.427 21.814">
  <g id="جوهرة_لأركان_1_" data-name="جوهرة لأركان (1)" transform="translate(-6.033 -9.213)">
    <path id="Path_11693" data-name="Path 11693" d="M36.481,14.03l-5.428,9.5L25.17,19.008l.455-4.978Z" transform="translate(-8.229 -2.056)" fill="#1c99d6" stroke="#1c99d6" stroke-linejoin="bevel" stroke-width="0.1"/>
    <path id="Path_11694" data-name="Path 11694" d="M44.1,19.913l-8.6,3.619,5.428-9.5Z" transform="translate(-12.682 -2.056)" fill="#2b87c8" stroke="#2b87c8" stroke-linejoin="bevel" stroke-width="0.1"/>
    <path id="Path_11695" data-name="Path 11695" d="M35.5,27.989l2.714,8.6L44.1,24.37Z" transform="translate(-12.682 -6.513)" fill="#1b66af" stroke="#1b66af" stroke-linejoin="bevel" stroke-width="0.1"/>
    <path id="Path_11696" data-name="Path 11696" d="M8.344,30.472l8.6-7.692L6.08,24.589Z" transform="translate(0 -5.828)" fill="#125f9c" stroke="#125f9c" stroke-linejoin="bevel" stroke-width="0.1"/>
    <path id="Path_11697" data-name="Path 11697" d="M30.67,39.327l-12.67.9,9.951-9.5Z" transform="translate(-5.138 -9.255)" fill="#0b213b" stroke="#0b213b" stroke-linejoin="bevel" stroke-width="0.1"/>
    <path id="Path_11698" data-name="Path 11698" d="M10.06,30.472,24.54,27.3,18.657,22.78Z" transform="translate(-1.716 -5.828)" fill="#024e7e" stroke="#024e7e" stroke-linejoin="bevel" stroke-width="0.1"/>
    <path id="Path_11699" data-name="Path 11699" d="M9.249,18.01l7.692,2.714L6.08,22.533Z" transform="translate(0 -3.772)" fill="#1070b1" stroke="#1070b1" stroke-linejoin="bevel" stroke-width="0.1"/>
    <path id="Path_11700" data-name="Path 11700" d="M10.06,33.9,24.54,30.73l-9.951,9.5Z" transform="translate(-1.716 -9.255)" fill="#0e4774" stroke="#0e4774" stroke-linejoin="bevel" stroke-width="0.1"/>
    <path id="Path_11701" data-name="Path 11701" d="M11.65,16.294l8.142-2.264-.455,4.978Z" transform="translate(-2.401 -2.056)" fill="#14629d" stroke="#14629d" stroke-linejoin="bevel" stroke-width="0.1"/>
    <path id="Path_11702" data-name="Path 11702" d="M28.674,9.26,25.96,11.974H36.816Z" transform="translate(-8.569)" fill="#2095d2" stroke="#2095d2" stroke-linejoin="bevel" stroke-width="0.1"/>
    <path id="Path_11703" data-name="Path 11703" d="M11.65,14.238l8.142-2.264L22.506,9.26Z" transform="translate(-2.401)" fill="#306a9b" stroke="#306a9b" stroke-linejoin="bevel" stroke-width="0.1"/>
  </g>
</svg>
