<svg id="beach-vacation" xmlns="http://www.w3.org/2000/svg" xmlns:xlink="http://www.w3.org/1999/xlink" width="59.763" height="59.763" viewBox="0 0 59.763 59.763">
  <defs>
    <linearGradient id="linear-gradient" x1="0.5" x2="0.5" y2="1" gradientUnits="objectBoundingBox">
      <stop offset="0" stop-color="#0b4e86"/>
      <stop offset="1" stop-color="#002e54"/>
    </linearGradient>
  </defs>
  <path id="Path_11628" data-name="Path 11628" d="M55.244,412.537a.875.875,0,1,0,0-1.751H49.665a.875.875,0,1,0,0,1.751Z" transform="translate(-43.095 -362.837)" fill="url(#linear-gradient)"/>
  <path id="Path_11629" data-name="Path 11629" d="M129.743,412.537a.875.875,0,0,0,0-1.751h-2.077a.875.875,0,1,0,0,1.751Z" transform="translate(-111.991 -362.837)" fill="url(#linear-gradient)"/>
  <path id="Path_11630" data-name="Path 11630" d="M224.665,450.876a.875.875,0,1,0,0,1.751h2.427a.875.875,0,1,0,0-1.751Z" transform="translate(-197.668 -398.248)" fill="url(#linear-gradient)"/>
  <path id="Path_11631" data-name="Path 11631" d="M118.79,451.751a.875.875,0,0,0,.875.875h8.73a.875.875,0,1,0,0-1.751h-8.73A.875.875,0,0,0,118.79,451.751Z" transform="translate(-104.924 -398.248)" fill="url(#linear-gradient)"/>
  <path id="Path_11632" data-name="Path 11632" d="M320.374,410.786H312.46a.875.875,0,0,0,0,1.751h7.913a.875.875,0,1,0,0-1.751Z" transform="translate(-275.215 -362.837)" fill="url(#linear-gradient)"/>
  <path id="Path_11633" data-name="Path 11633" d="M257.7,412.537a.875.875,0,1,0,0-1.751H254.46a.875.875,0,1,0,0,1.751Z" transform="translate(-223.985 -362.837)" fill="url(#linear-gradient)"/>
  <path id="Path_11634" data-name="Path 11634" d="M335.051,451.751a.875.875,0,0,0,.875.875h12.157a.875.875,0,0,0,0-1.751H335.926A.875.875,0,0,0,335.051,451.751Z" transform="translate(-295.942 -398.248)" fill="url(#linear-gradient)"/>
  <path id="Path_11635" data-name="Path 11635" d="M417.133,497h-10.67a.875.875,0,1,0,0,1.751h10.67a.875.875,0,1,0,0-1.751Z" transform="translate(-358.246 -438.988)" fill="url(#linear-gradient)"/>
  <path id="Path_11636" data-name="Path 11636" d="M58.887,345.639a4.011,4.011,0,0,0-3.026,1.416,2.233,2.233,0,0,1-3.617,0,3.941,3.941,0,0,0-6.053,0,2.232,2.232,0,0,1-3.617,0,3.941,3.941,0,0,0-6.052,0,2.232,2.232,0,0,1-3.616,0,3.941,3.941,0,0,0-6.052,0,2.232,2.232,0,0,1-3.616,0,3.941,3.941,0,0,0-6.052,0,2.232,2.232,0,0,1-3.617,0,3.941,3.941,0,0,0-6.052,0,2.353,2.353,0,0,1-1.808.923,2.352,2.352,0,0,1-1.808-.923,4.009,4.009,0,0,0-3.026-1.416.875.875,0,0,0,0,1.751,2.352,2.352,0,0,1,1.808.923,4.009,4.009,0,0,0,3.026,1.416,4.009,4.009,0,0,0,3.026-1.416,2.353,2.353,0,0,1,1.808-.923,2.353,2.353,0,0,1,1.808.924,3.941,3.941,0,0,0,6.052,0,2.232,2.232,0,0,1,3.617,0,3.94,3.94,0,0,0,6.052,0,2.232,2.232,0,0,1,3.616,0,3.941,3.941,0,0,0,6.052,0,2.232,2.232,0,0,1,3.617,0,3.941,3.941,0,0,0,6.052,0,2.233,2.233,0,0,1,3.617,0,3.942,3.942,0,0,0,6.053,0,2.354,2.354,0,0,1,1.809-.924.875.875,0,0,0,0-1.751Z" transform="translate(0 -305.295)" fill="url(#linear-gradient)"/>
  <path id="Path_11637" data-name="Path 11637" d="M44.149,497H.875a.875.875,0,1,0,0,1.751H44.149a.875.875,0,1,0,0-1.751Z" transform="translate(0 -438.988)" fill="url(#linear-gradient)"/>
  <path id="Path_11638" data-name="Path 11638" d="M.875,109.487a16.811,16.811,0,0,1,4.629.559,18.52,18.52,0,0,0,5.04.608,18.52,18.52,0,0,0,5.04-.608,16.816,16.816,0,0,1,4.629-.559,16.811,16.811,0,0,1,4.629.559,18.52,18.52,0,0,0,5.04.608,18.522,18.522,0,0,0,5.04-.608,16.816,16.816,0,0,1,4.629-.559,16.814,16.814,0,0,1,4.629.559,18.521,18.521,0,0,0,5.04.608,18.524,18.524,0,0,0,5.04-.608,16.817,16.817,0,0,1,4.629-.559.875.875,0,0,0,0-1.751,18.521,18.521,0,0,0-5.04.608,16.819,16.819,0,0,1-4.629.559,16.813,16.813,0,0,1-4.629-.559,18.522,18.522,0,0,0-5.04-.608,18.237,18.237,0,0,0-4.617.507l3.1-10.719a2.449,2.449,0,0,1,4.7,1.37.875.875,0,0,0,1.676.5l.03-.1a2.449,2.449,0,0,1,4.682,1.439.875.875,0,1,0,1.682.486,14.175,14.175,0,0,0-8.85-17.282l.364-1.259a.875.875,0,1,0-1.682-.486l-.364,1.26a14.192,14.192,0,0,0-16.7,9.9.875.875,0,1,0,1.682.486,2.449,2.449,0,0,1,4.728,1.278c-.014.05-.023.084-.027.1a.875.875,0,0,0,1.688.463,2.449,2.449,0,0,1,4.7,1.363h0l-3.358,11.624a17.9,17.9,0,0,1-3.1.23,16.812,16.812,0,0,1-4.629-.559c-.19-.046-.382-.092-.579-.138q.078-.072.154-.148a4.876,4.876,0,1,0-7.084-.2,19.158,19.158,0,0,0-2.571.484,16.816,16.816,0,0,1-4.629.559,16.811,16.811,0,0,1-4.629-.559,18.519,18.519,0,0,0-5.04-.608.875.875,0,0,0,0,1.751ZM41.544,94.179a4.178,4.178,0,0,0-2.572.079l2.476-8.571a3.832,3.832,0,0,1,1.56,1.614c.848,1.576,1.077,4.054.664,7.167-.044.332-.093.656-.146.966a4.176,4.176,0,0,0-1.982-1.256Zm6.517-2.889a12.365,12.365,0,0,1,1.548,5.675,4.2,4.2,0,0,0-4.432-.791c.448-2.448.768-5.831-.114-8.5A12.412,12.412,0,0,1,48.061,91.29Zm-19.293-.8a4.174,4.174,0,0,0-1.916-.1,12.486,12.486,0,0,1,8.784-5.426c-2.162,1.786-3.692,4.813-4.617,7.119A4.178,4.178,0,0,0,28.767,90.489Zm6.388,1.845a4.175,4.175,0,0,0-2.346.006c.118-.282.245-.574.38-.87,1.313-2.867,2.832-4.849,4.394-5.734a3.831,3.831,0,0,1,2.182-.534L37.29,93.77A4.169,4.169,0,0,0,35.156,92.334ZM24.121,103.107a3.127,3.127,0,0,1-4.245,4.245ZM19.17,102.4a3.13,3.13,0,0,1,3.713-.532l-4.244,4.244a3.13,3.13,0,0,1,.531-3.712Z" transform="translate(0 -72.044)" fill="url(#linear-gradient)"/>
  <path id="Path_11639" data-name="Path 11639" d="M101.437,55.1a3.643,3.643,0,1,0-3.642-3.643A3.646,3.646,0,0,0,101.437,55.1Zm0-5.535a1.892,1.892,0,1,1-1.891,1.892A1.894,1.894,0,0,1,101.437,49.566Z" transform="translate(-86.38 -42.234)" fill="url(#linear-gradient)"/>
  <path id="Path_11640" data-name="Path 11640" d="M121.494,126.119V128.2a.875.875,0,1,0,1.751,0v-2.078a.875.875,0,0,0-1.751,0Z" transform="translate(-107.313 -110.625)" fill="url(#linear-gradient)"/>
  <path id="Path_11641" data-name="Path 11641" d="M122.369,3.829a.875.875,0,0,0,.875-.875V.875a.875.875,0,0,0-1.751,0V2.953A.875.875,0,0,0,122.369,3.829Z" transform="translate(-107.313 0)" fill="url(#linear-gradient)"/>
  <path id="Path_11642" data-name="Path 11642" d="M50.875,73.274h2.077a.875.875,0,0,0,0-1.751H50.875a.875.875,0,0,0,0,1.751Z" transform="translate(-44.164 -63.175)" fill="url(#linear-gradient)"/>
  <path id="Path_11643" data-name="Path 11643" d="M175.193,72.4a.875.875,0,0,0,.875.875h2.077a.875.875,0,0,0,0-1.751h-2.077A.875.875,0,0,0,175.193,72.4Z" transform="translate(-154.744 -63.175)" fill="url(#linear-gradient)"/>
  <path id="Path_11644" data-name="Path 11644" d="M72.665,109.766,71.2,111.235a.875.875,0,1,0,1.238,1.238L73.9,111a.875.875,0,0,0-1.238-1.238Z" transform="translate(-62.66 -96.727)" fill="url(#linear-gradient)"/>
  <path id="Path_11645" data-name="Path 11645" d="M160.34,24.169a.873.873,0,0,0,.619-.257l1.469-1.469a.875.875,0,0,0-1.238-1.238l-1.469,1.469a.875.875,0,0,0,.619,1.494Z" transform="translate(-140.851 -18.504)" fill="url(#linear-gradient)"/>
  <path id="Path_11646" data-name="Path 11646" d="M72.665,23.912A.875.875,0,1,0,73.9,22.674L72.434,21.2A.875.875,0,1,0,71.2,22.442Z" transform="translate(-62.659 -18.503)" fill="url(#linear-gradient)"/>
  <path id="Path_11647" data-name="Path 11647" d="M159.721,109.766a.875.875,0,0,0,0,1.238l1.469,1.469a.875.875,0,0,0,1.238-1.238l-1.469-1.469A.875.875,0,0,0,159.721,109.766Z" transform="translate(-140.851 -96.727)" fill="url(#linear-gradient)"/>
</svg>
