<svg xmlns="http://www.w3.org/2000/svg" xmlns:xlink="http://www.w3.org/1999/xlink" width="141.088" height="141.088" viewBox="0 0 141.088 141.088">
  <defs>
    <linearGradient id="linear-gradient" x1="0.5" x2="0.5" y2="1.615" gradientUnits="objectBoundingBox">
      <stop offset="0" stop-color="#236194"/>
      <stop offset="1" stop-color="#12314a"/>
    </linearGradient>
    <filter id="Path_11617" x="0" y="0" width="141.088" height="141.088" filterUnits="userSpaceOnUse">
      <feOffset dy="3" input="SourceAlpha"/>
      <feGaussianBlur stdDeviation="3" result="blur"/>
      <feFlood flood-opacity="0.161"/>
      <feComposite operator="in" in2="blur"/>
      <feComposite in="SourceGraphic"/>
    </filter>
  </defs>
  <g id="Group_2862" data-name="Group 2862" transform="translate(-1003.956 -3166.456)">
    <g transform="matrix(1, 0, 0, 1, 1003.96, 3166.46)" filter="url(#Path_11617)">
      <path id="Path_11617-2" data-name="Path 11617" d="M56.272,12.728a18,18,0,0,1,25.456,0l43.544,43.544a18,18,0,0,1,0,25.456L81.728,125.272a18,18,0,0,1-25.456,0L12.728,81.728a18,18,0,0,1,0-25.456Z" transform="translate(1.54 -1.46)" fill="url(#linear-gradient)"/>
    </g>
    <path id="calendar-check" d="M33.119,5.3H29.145V.994A.994.994,0,0,0,28.151,0H24.839a.994.994,0,0,0-.994.994V5.3h-10.6V.994A.994.994,0,0,0,12.254,0H8.942a.994.994,0,0,0-.994.994V5.3H3.974A3.974,3.974,0,0,0,0,9.273V38.418a3.974,3.974,0,0,0,3.974,3.974H33.119a3.974,3.974,0,0,0,3.974-3.974V9.273A3.974,3.974,0,0,0,33.119,5.3Zm-.5,33.119H4.471a.5.5,0,0,1-.5-.5V13.248H33.119V37.921A.5.5,0,0,1,32.622,38.418ZM28.246,21.8,16.464,33.493a.994.994,0,0,1-1.405-.006L8.841,27.22a.994.994,0,0,1,.006-1.405l1.881-1.866a.993.993,0,0,1,1.405.006l3.652,3.681,9.2-9.123a.994.994,0,0,1,1.405.006L28.252,20.4a.994.994,0,0,1-.006,1.405Z" transform="translate(1056.111 3209.842)" fill="#fff"/>
  </g>
</svg>
