<svg xmlns="http://www.w3.org/2000/svg" xmlns:xlink="http://www.w3.org/1999/xlink" width="40.496" height="59.763" viewBox="0 0 40.496 59.763">
  <defs>
    <linearGradient id="linear-gradient" x1="0.5" x2="0.5" y2="1" gradientUnits="objectBoundingBox">
      <stop offset="0" stop-color="#0b4e86"/>
      <stop offset="1" stop-color="#002e54"/>
    </linearGradient>
  </defs>
  <g id="city-map" transform="translate(0)">
    <path id="Path_11653" data-name="Path 11653" d="M83.408,60.694a.875.875,0,0,0,.874-.874V36.59a6.962,6.962,0,0,1,6.954-6.954H96.6a.874.874,0,0,0,0-1.749H91.237a8.713,8.713,0,0,0-8.7,8.7V59.82A.874.874,0,0,0,83.408,60.694Z" transform="translate(-82.533 -24.632)" fill="url(#linear-gradient)"/>
    <path id="Path_11654" data-name="Path 11654" d="M115.8,3.38l-.04-.006c-.147-.17-.3-.337-.457-.5A9.558,9.558,0,0,0,108.469,0,9.666,9.666,0,0,0,99.1,7.336H91.235a4.627,4.627,0,0,0-4.622,4.622V44.5a4.627,4.627,0,0,0,4.622,4.622h23.09a4.627,4.627,0,0,0,4.622-4.622V20.242a.875.875,0,0,0-1.749,0v6.57l-3.119,2.777a5.474,5.474,0,0,1-1.866,1.093l-11.832,4.078A4.752,4.752,0,0,0,91.548,37.8l-3.187,1.1V31.265l14.233-10.726a44.713,44.713,0,0,0,4.8,6.288,1.466,1.466,0,0,0,2.144,0c1.994-2.169,8.507-9.811,8.578-17.058a9.536,9.536,0,0,0-.893-4.134,6.936,6.936,0,0,1,4.052,6.323V44.5a6.962,6.962,0,0,1-6.954,6.954H91.235A6.962,6.962,0,0,1,84.281,44.5V39.362a.874.874,0,1,0-1.749,0V44.5a8.713,8.713,0,0,0,8.7,8.7h3.632v4.814H92.533a.874.874,0,0,0,0,1.749h20.429a.874.874,0,1,0,0-1.749h-2.269V53.2h3.632a8.713,8.713,0,0,0,8.7-8.7V11.958A8.68,8.68,0,0,0,115.8,3.38ZM91.235,9.085h.59v7.626a.783.783,0,0,1-.782.782H88.362V11.958a2.877,2.877,0,0,1,2.873-2.873Zm23.09,38.286H99.745l-1.554-5.924a4.784,4.784,0,0,0,2-1.683H117.2V44.5a2.876,2.876,0,0,1-2.873,2.873Zm-1.541-15.036a7.214,7.214,0,0,0,2.459-1.44l1.956-1.741v8.861H100.917a4.733,4.733,0,0,0,.036-1.6ZM96.251,34.1a3,3,0,1,1-3,3A3.008,3.008,0,0,1,96.251,34.1Zm-4.13,5.353a4.756,4.756,0,0,0,4.13,2.405q.12,0,.239-.006l1.447,5.515h-6.7A2.876,2.876,0,0,1,88.362,44.5V40.752ZM88.362,19.242h2.681a2.514,2.514,0,0,0,1.171-.288l4.43,3.879-8.282,6.241Zm9.709,2.516-4.682-4.1a2.517,2.517,0,0,0,.185-.948V9.085h5.263c-.011.187-.018.376-.018.566a19.949,19.949,0,0,0,2.879,9.374Zm10.4,3.648c-1.736-1.93-7.9-9.245-7.9-15.756a7.911,7.911,0,0,1,7.9-7.9,7.821,7.821,0,0,1,5.586,2.358,7.87,7.87,0,0,1,2.315,5.646C116.308,16.238,110.194,23.489,108.469,25.407Zm.474,32.607H96.616V53.2h12.327Z" transform="translate(-82.532)" fill="url(#linear-gradient)"/>
    <path id="Path_11655" data-name="Path 11655" d="M269.23,41.054a4.59,4.59,0,1,0,4.589,4.589A4.595,4.595,0,0,0,269.23,41.054Zm0,7.43a2.841,2.841,0,1,1,2.841-2.841A2.844,2.844,0,0,1,269.23,48.484Z" transform="translate(-243.384 -36.262)" fill="url(#linear-gradient)"/>
  </g>
</svg>
