<svg xmlns="http://www.w3.org/2000/svg" width="32.021" height="32.021" viewBox="0 0 32.021 32.021">
  <path id="Path_40" data-name="Path 40" d="M16.011,2.846a49.092,49.092,0,0,1,6.4.178,8.251,8.251,0,0,1,3.024.534,6.248,6.248,0,0,1,3.024,3.024A8.251,8.251,0,0,1,29,9.606c0,1.6.178,2.135.178,6.4a49.092,49.092,0,0,1-.178,6.4,8.251,8.251,0,0,1-.534,3.024,6.248,6.248,0,0,1-3.024,3.024A8.251,8.251,0,0,1,22.415,29c-1.6,0-2.135.178-6.4.178A49.092,49.092,0,0,1,9.606,29a8.251,8.251,0,0,1-3.024-.534,6.248,6.248,0,0,1-3.024-3.024,8.251,8.251,0,0,1-.534-3.024c0-1.6-.178-2.135-.178-6.4a49.092,49.092,0,0,1,.178-6.4,8.251,8.251,0,0,1,.534-3.024A6.389,6.389,0,0,1,4.8,4.8,3.008,3.008,0,0,1,6.582,3.558a8.251,8.251,0,0,1,3.024-.534,49.092,49.092,0,0,1,6.4-.178m0-2.846A52.564,52.564,0,0,0,9.429.178,10.983,10.983,0,0,0,5.515.889,6.964,6.964,0,0,0,2.668,2.668,6.964,6.964,0,0,0,.889,5.515,8.106,8.106,0,0,0,.178,9.429,52.564,52.564,0,0,0,0,16.011a52.564,52.564,0,0,0,.178,6.582,10.983,10.983,0,0,0,.712,3.914,6.964,6.964,0,0,0,1.779,2.846,6.964,6.964,0,0,0,2.846,1.779,10.983,10.983,0,0,0,3.914.712,52.563,52.563,0,0,0,6.582.178,52.563,52.563,0,0,0,6.582-.178,10.983,10.983,0,0,0,3.914-.712,7.464,7.464,0,0,0,4.625-4.625,10.983,10.983,0,0,0,.712-3.914c0-1.779.178-2.313.178-6.582a52.563,52.563,0,0,0-.178-6.582,10.983,10.983,0,0,0-.712-3.914,6.964,6.964,0,0,0-1.779-2.846A6.964,6.964,0,0,0,26.507.889,10.983,10.983,0,0,0,22.593.178,52.564,52.564,0,0,0,16.011,0m0,7.827a8.051,8.051,0,0,0-8.183,8.183,8.183,8.183,0,1,0,8.183-8.183m0,13.52a5.242,5.242,0,0,1-5.337-5.337,5.242,5.242,0,0,1,5.337-5.337,5.242,5.242,0,0,1,5.337,5.337,5.242,5.242,0,0,1-5.337,5.337M24.55,5.515a1.957,1.957,0,1,0,1.957,1.957A1.974,1.974,0,0,0,24.55,5.515" fill="#fff"/>
</svg>
