<svg xmlns="http://www.w3.org/2000/svg" xmlns:xlink="http://www.w3.org/1999/xlink" width="60.001" height="44.001" viewBox="0 0 60.001 44.001">
  <defs>
    <linearGradient id="linear-gradient" x1="0.5" x2="0.5" y2="1" gradientUnits="objectBoundingBox">
      <stop offset="0" stop-color="#0b4e86"/>
      <stop offset="1" stop-color="#002e54"/>
    </linearGradient>
  </defs>
  <g id="Page-1" transform="translate(0.001)">
    <g id="_035---Motorway" data-name="035---Motorway" transform="translate(-1)">
      <path id="Shape" d="M19.193,0H16.116a1.919,1.919,0,0,0-1.7,1.412L1.078,41.965a1.47,1.47,0,0,0,.2,1.335A1.828,1.828,0,0,0,2.8,44h0l6.047-.007A2.171,2.171,0,0,0,11,42.5L20.51,1.952A1.688,1.688,0,0,0,20.237.506,1.326,1.326,0,0,0,19.193,0ZM2.741,42a.2.2,0,0,1,.055.029V43Zm6.332-.061a.482.482,0,0,1-.23.059L3.172,42,16.315,2.037A.211.211,0,0,1,16.33,2h2.115Z" fill="url(#linear-gradient)"/>
      <path id="Shape-2" data-name="Shape" d="M38.71,0H23.29a1.722,1.722,0,0,0-1.557,1.557L15.024,42.088a1.57,1.57,0,0,0,.344,1.281,1.826,1.826,0,0,0,1.412.621L31,43.97l14.22.02a1.825,1.825,0,0,0,1.411-.621,1.565,1.565,0,0,0,.346-1.272L40.265,1.548A1.719,1.719,0,0,0,38.71,0ZM31,2h1.083L32.2,7H29.8l.119-5ZM29,41.954l.122-5.943L30.995,36l1.879.015L33,41.97ZM35,41.976l-.127-6.2a1.867,1.867,0,0,0-1.937-1.768L30.995,34l-1.921.011a1.871,1.871,0,0,0-1.943,1.77L27,41.976l-9.936.014L23.7,2h4.217l-.125,5.268a1.75,1.75,0,0,0,.482,1.262,1.526,1.526,0,0,0,1.1.47h3.26a1.526,1.526,0,0,0,1.1-.47,1.748,1.748,0,0,0,.481-1.26L34.084,2h4.229l6.62,39.99Z" fill="url(#linear-gradient)"/>
      <path id="Shape-3" data-name="Shape" d="M53.155,43.993,59.2,44h0a1.829,1.829,0,0,0,1.519-.7,1.468,1.468,0,0,0,.2-1.335L47.585,1.412A1.92,1.92,0,0,0,45.884,0H42.807a1.326,1.326,0,0,0-1.044.506,1.688,1.688,0,0,0-.272,1.446L51.005,42.5a2.171,2.171,0,0,0,2.15,1.5ZM45.67,2a.283.283,0,0,1,.016.037L58.828,42l-5.67-.006a.48.48,0,0,1-.23-.059L43.556,2Z" fill="url(#linear-gradient)"/>
      <path id="Shape-4" data-name="Shape" d="M29.25,19h3.5a1.789,1.789,0,0,0,1.283-.522,1.517,1.517,0,0,0,.437-1.109l-.13-4.8A1.636,1.636,0,0,0,32.67,11H29.33a1.636,1.636,0,0,0-1.67,1.568l-.13,4.8a1.518,1.518,0,0,0,.437,1.11A1.789,1.789,0,0,0,29.25,19Zm.4-6h2.7l.108,4H29.541Z" fill="url(#linear-gradient)"/>
      <path id="Shape-5" data-name="Shape" d="M32.8,22H29.2a1.777,1.777,0,0,0-1.8,1.682l-.13,5.6a1.591,1.591,0,0,0,.461,1.159A1.939,1.939,0,0,0,29.12,31h3.76a1.939,1.939,0,0,0,1.388-.562,1.589,1.589,0,0,0,.461-1.156l-.13-5.6A1.776,1.776,0,0,0,32.8,22Zm-3.522,7,.116-5h3.213l.116,5Z" fill="url(#linear-gradient)"/>
    </g>
  </g>
</svg>
