<svg xmlns="http://www.w3.org/2000/svg" width="32.021" height="25.973" viewBox="0 0 32.021 25.973">
  <path id="Path_39" data-name="Path 39" d="M48.14,27.973c12.1,0,18.679-9.962,18.679-18.679V8.4a14.46,14.46,0,0,0,3.2-3.38,14.768,14.768,0,0,1-3.736,1.067,6.921,6.921,0,0,0,2.846-3.558,16.317,16.317,0,0,1-4.092,1.6A6.353,6.353,0,0,0,60.237,2a6.684,6.684,0,0,0-6.582,6.582,3.468,3.468,0,0,0,.178,1.423,18.393,18.393,0,0,1-13.52-6.938,6.813,6.813,0,0,0-.889,3.38,7.068,7.068,0,0,0,2.846,5.515,6,6,0,0,1-3.024-.889h0a6.5,6.5,0,0,0,5.337,6.4,5.484,5.484,0,0,1-1.779.178,3.027,3.027,0,0,1-1.245-.178A6.739,6.739,0,0,0,47.784,22.1,13.431,13.431,0,0,1,39.6,24.949a4.925,4.925,0,0,1-1.6-.178,16.791,16.791,0,0,0,10.14,3.2" transform="translate(-38 -2)" fill="#fff"/>
</svg>
